<?xml version="1.0" encoding="UTF-8" standalone="no"?>
<!-- Generator: Adobe Illustrator 19.0.0, SVG Export Plug-In . SVG Version: 6.00 Build 0)  -->

<svg
   xmlns:dc="http://purl.org/dc/elements/1.1/"
   xmlns:cc="http://creativecommons.org/ns#"
   xmlns:rdf="http://www.w3.org/1999/02/22-rdf-syntax-ns#"
   xmlns:svg="http://www.w3.org/2000/svg"
   xmlns="http://www.w3.org/2000/svg"
   xmlns:sodipodi="http://sodipodi.sourceforge.net/DTD/sodipodi-0.dtd"
   xmlns:inkscape="http://www.inkscape.org/namespaces/inkscape"
   version="1.1"
   id="Layer_1"
   x="0px"
   y="0px"
   viewBox="0 0 443.7 95.2"
   style="enable-background:new 0 0 443.7 95.2;"
   xml:space="preserve"
   inkscape:version="0.91 r13725"
   sodipodi:docname="example-app-logo.svg"
   inkscape:export-filename="/Users/shawn/projects/exosite/sphinx-example/public/exosite-logo.png"
   inkscape:export-xdpi="66.900002"
   inkscape:export-ydpi="66.900002"><metadata
     id="metadata24"><rdf:RDF><cc:Work
         rdf:about=""><dc:format>image/svg+xml</dc:format><dc:type
           rdf:resource="http://purl.org/dc/dcmitype/StillImage" /><dc:title></dc:title></cc:Work></rdf:RDF></metadata><defs
     id="defs22" /><sodipodi:namedview
     pagecolor="#ffffff"
     bordercolor="#666666"
     borderopacity="1"
     objecttolerance="10"
     gridtolerance="10"
     guidetolerance="10"
     inkscape:pageopacity="0"
     inkscape:pageshadow="2"
     inkscape:window-width="1116"
     inkscape:window-height="700"
     id="namedview20"
     showgrid="false"
     inkscape:zoom="0.61753435"
     inkscape:cx="221.85001"
     inkscape:cy="47.599998"
     inkscape:window-x="0"
     inkscape:window-y="0"
     inkscape:window-maximized="0"
     inkscape:current-layer="Layer_1" /><style
     type="text/css"
     id="style3">
	.st0{fill:#FFFFFF;}
	.st1{fill:#38C4DE;}
	.st2{fill:none;}
	.st3{font-family:'Roboto-Medium';}
	.st4{font-size:22.3529px;}
</style><g
     id="XMLID_1927_"><g
       id="XMLID_1961_"><g
         id="XMLID_2020_"><path
           id="XMLID_2642_"
           class="st0"
           d="M134.7,61.5h-30.4V20.4h30v7.3h-22.2v8.8H131v7.3h-18.9v10.5h22.6V61.5z" /><path
           id="XMLID_2231_"
           class="st0"
           d="M172.9,47.1l-8.6,14.4h-9.3l13.3-21l-12.7-20.1h9.2l8.1,13.4l8.1-13.4h9.3l-12.7,20.1     l13.2,21h-9.2L172.9,47.1z" /><path
           id="XMLID_2190_"
           class="st0"
           d="M248.1,40.8c0,12-8.5,21.4-20.1,21.4c-11.7,0-20.1-9.5-20.1-21.4     c0-11.9,8.5-21.4,20.1-21.4C239.7,19.4,248.1,28.9,248.1,40.8z M240.2,40.8c0-7.6-5.5-14-12.2-14c-6.8,0-12.3,6.3-12.3,14     c0,7.7,5.5,14,12.3,14C234.8,54.8,240.2,48.5,240.2,40.8z" /><path
           id="XMLID_2149_"
           class="st0"
           d="M302.6,32.8h-7.8c0-3.6-3-6.2-7.9-6.2c-4.1,0-8,1.6-8,4.7c0,2.8,2.8,3.8,9.1,5.1     c9.8,2,15.9,4.4,15.9,12.8c0,7.9-6.6,12.9-17,12.9c-8.1,0-16.8-4.4-16.8-14.3h7.8c0,4.9,4.9,7.2,9,7.2c4.5,0,9.2-1.6,9.2-5.5     c0-2.6-2.1-4.2-9.7-5.7c-7.6-1.5-15.3-3.7-15.3-12.5c0-7,6.2-12,15.8-12C297.7,19.3,302.6,26.3,302.6,32.8z" /><path
           id="XMLID_2054_"
           class="st0"
           d="M335.7,61.5h-7.8V20.4h7.8V61.5z" /><path
           id="XMLID_2033_"
           class="st0"
           d="M377.1,27.7v33.8h-7.8V27.7h-11v-7.3h29.8v7.3H377.1z" /><path
           id="XMLID_2022_"
           class="st0"
           d="M441,61.5h-30.4V20.4h30v7.3h-22.2v8.8h18.9v7.3h-18.9v10.5H441V61.5z" /></g><g
         id="XMLID_1976_"><path
           id="XMLID_2018_"
           class="st1"
           d="M51.9,37.9c-7.2,0-13.1-5.9-13.1-13.1v-9.3c0-7.2,5.9-13.1,13.1-13.1     C59.1,2.4,65,8.3,65,15.5v9.3C65,32,59.1,37.9,51.9,37.9L51.9,37.9z" /><path
           id="XMLID_1977_"
           class="st0"
           d="M51.9,83c-7.2,0-13.1-5.9-13.1-13.1v-9c0-15.3-7.8-23.1-23.1-23.1     C8.5,37.8,2.6,32,2.6,24.8v-9.3c0-7.2,5.9-13.1,13.1-13.1c7.2,0,13.1,5.9,13.1,13.1v9.3c0,18.2,14.5,23.1,23.1,23.1     c7.2,0,13.1,5.9,13.1,13.1v9C65,77.1,59.1,83,51.9,83L51.9,83z" /></g></g><rect
       id="XMLID_16_"
       x="104.3"
       y="75.3"
       class="st2"
       width="336.8"
       height="17.5" /><text
       id="XMLID_1940_"
       transform="matrix(1 0 0 1 104.2686 92.0229)"
       class="st0 st3 st4">HOME AUTOMATION EXAMPLE</text>
</g></svg>